<?xml version="1.0" standalone="no"?>
<!DOCTYPE svg PUBLIC "-//W3C//DTD SVG 20010904//EN"
 "http://www.w3.org/TR/2001/REC-SVG-20010904/DTD/svg10.dtd">
<svg version="1.0" xmlns="http://www.w3.org/2000/svg"
 width="96.000000pt" height="96.000000pt" viewBox="0 0 96.000000 96.000000"
 preserveAspectRatio="xMidYMid meet">

<g transform="translate(0.000000,96.000000) scale(0.100000,-0.100000)"
fill="#000000" stroke="none">
<path d="M404 855 c-51 -51 -59 -55 -90 -49 -31 6 -35 3 -63 -40 -16 -26 -35
-67 -42 -91 -8 -25 -21 -47 -31 -50 -18 -6 -34 -45 -44 -112 -5 -30 -12 -43
-27 -47 -18 -4 -19 -10 -13 -68 13 -131 97 -248 224 -310 61 -30 74 -33 162
-33 88 0 101 3 162 33 127 62 211 179 224 310 6 58 5 64 -13 68 -16 4 -22 17
-26 53 -7 58 -25 99 -46 106 -9 3 -23 25 -30 50 -7 25 -27 65 -44 91 -28 42
-32 45 -62 40 -30 -6 -38 -1 -89 49 -31 30 -65 55 -76 55 -11 0 -45 -25 -76
-55z m118 -52 l37 -36 -25 -30 c-34 -41 -73 -41 -107 -1 l-26 29 37 38 c20 20
38 37 41 37 3 0 22 -16 43 -37z m-151 -102 l39 -39 -32 -49 -33 -49 -47 24
c-43 22 -46 26 -38 52 15 52 42 100 57 100 9 0 33 -17 54 -39z m304 3 c9 -20
21 -49 25 -64 8 -26 5 -30 -38 -52 l-47 -24 -33 49 -32 49 39 39 c21 22 45 39
54 39 8 0 22 -16 32 -36z m-168 -86 c11 -13 30 -39 41 -59 19 -32 20 -38 8
-49 -12 -9 -21 -8 -46 6 -29 18 -31 18 -60 0 -24 -14 -34 -15 -45 -6 -13 10
-13 16 0 40 17 33 64 90 74 90 4 0 17 -10 28 -22z m-239 -82 c64 -33 109 -81
94 -99 -10 -12 -20 -11 -64 4 -29 10 -63 18 -75 19 -12 0 -25 5 -28 10 -9 15
5 90 16 90 5 0 31 -11 57 -24z m496 8 c3 -9 6 -31 6 -50 0 -30 -3 -34 -27 -34
-16 -1 -52 -9 -81 -19 -44 -15 -54 -16 -64 -4 -15 18 30 66 92 98 54 29 66 30
74 9z m-238 -115 l29 -31 -30 -24 c-38 -30 -52 -30 -90 0 l-30 24 29 31 c17
17 37 31 46 31 9 0 29 -14 46 -31z m-288 -34 c60 -14 136 -48 176 -77 18 -14
17 -17 -18 -63 -20 -26 -44 -61 -52 -76 -14 -28 -16 -29 -43 -15 -62 33 -128
130 -144 214 -8 37 -7 38 81 17z m565 -17 c-14 -79 -84 -182 -145 -214 -25
-13 -28 -13 -39 8 -6 13 -30 47 -52 77 -38 52 -39 55 -21 68 38 29 116 64 172
77 89 22 92 21 85 -16z m-293 -150 c38 -43 66 -95 56 -105 -10 -10 -162 -11
-172 -1 -10 11 7 45 47 95 19 23 35 42 37 42 1 1 16 -14 32 -31z"/>
</g>
</svg>
